<svg xmlns="http://www.w3.org/2000/svg" viewBox="0 0 256 256" role="img" aria-label="B%BI MacBook">
  <defs>
    <linearGradient id="g" x1="0" y1="0" x2="1" y2="1">
      <stop offset="0" stop-color="#0f172a"/>
      <stop offset="1" stop-color="#334155"/>
    </linearGradient>
  </defs>
  <rect width="256" height="256" rx="56" fill="#ffffff"/>
  <path d="M88 164h80c6.6 0 12-5.4 12-12V96c0-6.6-5.4-12-12-12H88c-6.6 0-12 5.4-12 12v56c0 6.6 5.4 12 12 12Z" fill="url(#g)"/>
  <path d="M64 176h128c6.6 0 12 5.4 12 12v4c0 6.6-5.4 12-12 12H64c-6.6 0-12-5.4-12-12v-4c0-6.6 5.4-12 12-12Z" fill="#0f172a"/>
  <path d="M124 188h8a6 6 0 0 1 0 12h-8a6 6 0 0 1 0-12Z" fill="#fff" opacity=".85"/>
  <text x="128" y="64" text-anchor="middle" font-family="system-ui,Segoe UI,Arial" font-size="22" font-weight="700" fill="#0f172a">MacBook</text>
</svg>

